HIERARCHY
ROOT Hips
{
	OFFSET 0.000000 0.000000 0.000000
	CHANNELS 6 Xposition Yposition Zposition Xrotation Yrotation Zrotation
	JOINT LeftUpLeg_virtual
	{
		OFFSET 0.000000 0.000000 0.000000
		CHANNELS 3 Xrotation Yrotation Zrotation
		JOINT LeftUpLeg
		{
			OFFSET 15.427100 -6.655098 0.678600
			CHANNELS 3 Xrotation Yrotation Zrotation
			JOINT LeftLeg
			{
				OFFSET 4.081073 -39.591068 13.024000
				CHANNELS 3 Xrotation Yrotation Zrotation
				JOINT LeftFoot
				{
					OFFSET -4.081074 -37.707932 -15.979700
					CHANNELS 3 Xrotation Yrotation Zrotation
					JOINT LeftToeBase
					{
						OFFSET 5.346399 -15.068900 20.645000
						CHANNELS 3 Xrotation Yrotation Zrotation
						JOINT LeftToe_End
						{
							OFFSET 2.754700 0.931300 11.300900
							CHANNELS 3 Xrotation Yrotation Zrotation
							End Site
							{
								OFFSET 0 0 0
							}
						}
					}
				}
			}
		}
	}
	JOINT RightUpLeg_virtual
	{
		OFFSET 0.000000 0.000000 0.000000
		CHANNELS 3 Xrotation Yrotation Zrotation
		JOINT RightUpLeg
		{
			OFFSET -15.569500 -6.655098 0.678600
			CHANNELS 3 Xrotation Yrotation Zrotation
			JOINT RightLeg
			{
				OFFSET -4.081825 -39.591045 13.023800
				CHANNELS 3 Xrotation Yrotation Zrotation
				JOINT RightFoot
				{
					OFFSET 4.081824 -37.707954 -15.979600
					CHANNELS 3 Xrotation Yrotation Zrotation
					JOINT RightToeBase
					{
						OFFSET -5.346400 -15.068900 20.645000
						CHANNELS 3 Xrotation Yrotation Zrotation
						JOINT RightToe_End
						{
							OFFSET -2.754700 0.931300 11.300900
							CHANNELS 3 Xrotation Yrotation Zrotation
							End Site
							{
								OFFSET 0 0 0
							}
						}
					}
				}
			}
		}
	}
	JOINT Spine_virtual
	{
		OFFSET 0.000000 0.000000 0.000000
		CHANNELS 3 Xrotation Yrotation Zrotation
		JOINT Spine
		{
			OFFSET -0.279200 12.230698 -2.892100
			CHANNELS 3 Xrotation Yrotation Zrotation
			JOINT Spine1
			{
				OFFSET -0.232667 10.192268 -1.242267
				CHANNELS 3 Xrotation Yrotation Zrotation
				JOINT Spine1_split
				{
					OFFSET -0.232667 10.192268 -1.242267
					CHANNELS 3 Xrotation Yrotation Zrotation
					JOINT Spine2
					{
						OFFSET -0.232667 10.192268 -1.242267
						CHANNELS 3 Xrotation Yrotation Zrotation
						JOINT Neck_virtual
						{
							OFFSET 0.000000 0.000000 0.000000
							CHANNELS 3 Xrotation Yrotation Zrotation
							JOINT Neck
							{
								OFFSET -0.418800 17.814194 8.416900
								CHANNELS 3 Xrotation Yrotation Zrotation
								JOINT Head
								{
									OFFSET 0.000000 7.031097 3.806800
									CHANNELS 3 Xrotation Yrotation Zrotation
									JOINT HeadTop_End
									{
										OFFSET 0.000000 24.646606 12.978600
										CHANNELS 3 Xrotation Yrotation Zrotation
										End Site
										{
											OFFSET 0 0 0
										}
									}
								}
							}
						}
						JOINT LeftShoulder_virtual
						{
							OFFSET 0.000000 0.000000 0.000000
							CHANNELS 3 Xrotation Yrotation Zrotation
							JOINT LeftShoulder
							{
								OFFSET 8.476499 7.247704 -3.868750
								CHANNELS 3 Xrotation Yrotation Zrotation
								JOINT LeftShoulder_split
								{
									OFFSET 8.476499 7.247704 -3.868750
									CHANNELS 3 Xrotation Yrotation Zrotation
									JOINT LeftArm
									{
										OFFSET 9.308998 -2.777710 0.208600
										CHANNELS 3 Xrotation Yrotation Zrotation
										JOINT LeftForeArm
										{
											OFFSET 29.972298 0.000000 0.000000
											CHANNELS 3 Xrotation Yrotation Zrotation
											JOINT LeftHand
											{
												OFFSET 26.026505 0.000000 0.000000
												CHANNELS 3 Xrotation Yrotation Zrotation
												End Site
												{
													OFFSET 0 0 0
												}
											}
										}
									}
								}
							}
						}
						JOINT RightShoulder_virtual
						{
							OFFSET 0.000000 0.000000 0.000000
							CHANNELS 3 Xrotation Yrotation Zrotation
							JOINT RightShoulder
							{
								OFFSET -7.570500 7.247704 -3.868750
								CHANNELS 3 Xrotation Yrotation Zrotation
								JOINT RightShoulder_split
								{
									OFFSET -7.570500 7.247704 -3.868750
									CHANNELS 3 Xrotation Yrotation Zrotation
									JOINT RightArm
									{
										OFFSET -9.308998 -2.777710 0.208500
										CHANNELS 3 Xrotation Yrotation Zrotation
										JOINT RightForeArm
										{
											OFFSET -29.972300 0.000000 0.000000
											CHANNELS 3 Xrotation Yrotation Zrotation
											JOINT RightHand
											{
												OFFSET -26.026505 0.000000 0.000000
												CHANNELS 3 Xrotation Yrotation Zrotation
												End Site
												{
													OFFSET 0 0 0
												}
											}
										}
									}
								}
							}
						}
					}
				}
			}
		}
	}
}
MOTION
Frames: 11
Frame Time: 0.03333333
0.372878 79.051987 -9.727173 0.000000 0.000000 0.000000 11.555541 -55.308662 12.029181 -36.983637 12.342923 26.625223 34.410145 -9.660281 -1.252692 -2.011529 3.308393 -16.668366 0.423582 -5.168425 1.403860 0.000000 0.000000 0.000000 9.662681 -52.566864 10.467950 -27.985766 -14.142312 -31.823788 33.610353 15.985083 -0.082490 -6.157072 -19.449761 28.869010 10.018095 8.105476 -12.213485 0.000000 0.000000 0.000000 3.109222 -48.712431 6.353878 16.179555 3.777916 -2.054302 2.458617 -4.260335 -1.268566 0.209520 0.155030 -0.021429 0.000000 0.000000 0.000000 3.336606 -0.986358 -1.900312 5.410195 4.182443 2.685396 7.457589 37.688735 -12.440799 0.000000 0.000000 0.000000 3.170891 -3.405033 -2.693543 6.221426 -3.115937 -14.852455 -1.437366 -4.219160 1.423187 -41.479404 17.966720 -23.332307 9.205778 -32.996097 2.475883 0.000000 0.000000 0.000000 5.018208 -2.118358 -1.540939 -3.140833 0.438842 8.347393 4.323121 4.773268 1.597971 2.379182 -8.641566 51.934323 -12.607749 28.437520 10.675619 0.000000 0.000000 0.000000 
-0.060264 79.856667 -7.827034 0.000000 0.000000 0.000000 11.498816 -55.176529 11.487595 -36.960213 13.095482 26.860373 35.044106 -10.090686 -0.946730 -2.068794 3.209107 -17.462048 -0.160000 -5.302149 1.882569 0.000000 0.000000 0.000000 10.672644 -52.891288 10.646871 -27.534374 -14.226438 -31.220467 33.109233 15.568424 -0.044238 -5.164930 -19.470827 29.025258 8.949926 8.089682 -11.857993 0.000000 0.000000 0.000000 4.120183 -48.855162 6.435888 15.662343 3.637092 -1.878060 2.319376 -4.337848 -1.241949 0.118147 0.151995 -0.052229 0.000000 0.000000 0.000000 3.330090 -1.020344 -1.870006 5.154926 4.210638 2.744859 6.977615 38.288002 -12.833701 0.000000 0.000000 0.000000 3.167433 -3.458434 -2.655317 6.169047 -3.469958 -14.401387 -1.767975 -4.169275 1.805416 -42.201287 18.268495 -22.616852 9.006790 -33.606839 2.590058 0.000000 0.000000 0.000000 5.027339 -2.136287 -1.529694 -3.245218 0.975682 8.661059 3.643427 3.858058 1.037073 0.252060 -9.069128 51.065858 -12.414247 27.199319 10.456484 0.000000 0.000000 0.000000 
-0.520597 80.844467 -5.511105 0.000000 0.000000 0.000000 11.785509 -55.029396 11.063439 -36.066489 13.835323 26.508997 35.695969 -10.593530 -0.798428 -3.506874 3.250977 -17.510575 -1.158771 -5.468205 2.662726 0.000000 0.000000 0.000000 11.868846 -52.950130 10.772177 -27.258310 -13.729719 -30.125502 33.237565 14.893835 -0.040831 -4.733870 -20.075232 28.179064 7.232874 8.105368 -11.063885 0.000000 0.000000 0.000000 5.706812 -48.916182 6.714683 14.842080 3.447598 -1.559060 2.144681 -4.549797 -1.154632 0.044901 0.190526 -0.037140 0.000000 0.000000 0.000000 3.363244 -1.238765 -1.723729 4.705062 4.529552 2.546693 6.168509 40.290804 -13.812878 0.000000 0.000000 0.000000 3.100505 -3.652964 -2.504478 6.054944 -4.017656 -13.915879 -1.832772 -4.012323 1.938852 -43.381615 18.275800 -21.551557 9.252425 -33.344604 2.959023 0.000000 0.000000 0.000000 4.915722 -2.331198 -1.412991 -3.383092 1.717891 9.239431 2.997949 2.858031 0.858738 -3.067095 -9.221374 49.494085 -12.258058 24.790458 10.283832 0.000000 0.000000 0.000000 
-0.918129 81.520226 -3.100136 0.000000 0.000000 0.000000 12.342304 -54.837161 10.817510 -34.735473 14.368717 25.694350 36.787938 -11.007920 -0.779582 -6.352562 3.546394 -16.539102 -1.441201 -5.580697 3.227022 0.000000 0.000000 0.000000 13.116239 -52.840153 10.920629 -27.555830 -12.752287 -28.711609 33.894264 14.221143 -0.091116 -5.180344 -20.980949 26.631975 5.547042 8.099049 -10.116281 0.000000 0.000000 0.000000 7.496590 -48.815311 7.119119 13.937500 3.215480 -1.148466 1.956426 -4.872133 -1.020033 0.032583 0.231868 0.003726 0.000000 0.000000 0.000000 3.416434 -1.610621 -1.497198 4.161495 5.069334 2.089550 5.335012 43.349838 -15.149324 0.000000 0.000000 0.000000 2.960624 -3.967522 -2.270049 5.888836 -4.731009 -13.460823 -1.830869 -3.847330 1.870915 -44.872717 17.998573 -20.480377 9.994464 -32.341649 3.651328 0.000000 0.000000 0.000000 4.728035 -2.686739 -1.237559 -3.552717 2.463903 10.016940 2.575465 2.099327 1.008367 -6.661278 -8.848153 47.724461 -12.236978 22.264571 10.270538 0.000000 0.000000 0.000000 
-1.233456 81.607109 -0.866913 0.000000 0.000000 0.000000 13.219307 -54.377742 10.859820 -33.738221 14.485972 24.700522 38.731021 -11.443066 -0.793811 -10.017451 3.900496 -14.954976 -0.609323 -5.571371 3.350572 0.000000 0.000000 0.000000 14.298853 -52.398469 11.091647 -28.686593 -11.564891 -27.174396 35.315777 13.848828 -0.303425 -6.540762 -21.707801 25.147399 3.963123 8.106735 -9.338263 0.000000 0.000000 0.000000 9.390094 -48.559923 7.656525 13.111337 2.959913 -0.699593 1.774884 -5.257186 -0.862102 0.048869 0.250952 0.008492 0.000000 0.000000 0.000000 3.428929 -2.073937 -1.267859 3.638039 5.744471 1.348902 4.799161 46.898155 -16.508209 0.000000 0.000000 0.000000 2.790049 -4.361782 -2.010025 5.688509 -5.505898 -13.024517 -1.789088 -3.937083 1.654158 -46.614518 17.377197 -19.617294 11.261037 -30.902662 4.759590 0.000000 0.000000 0.000000 4.501173 -3.161155 -1.059389 -3.751175 2.969557 10.868518 2.391923 1.659208 1.116844 -9.676040 -8.113612 46.280269 -12.407367 20.505521 10.436407 0.000000 0.000000 0.000000 
-1.516425 80.774254 1.007740 0.000000 0.000000 0.000000 14.428273 -53.548881 11.223597 -33.768445 13.840331 23.904614 41.747844 -12.211096 -0.617225 -13.639079 3.999534 -13.514220 0.354419 -5.482460 3.405056 0.000000 0.000000 0.000000 15.262910 -51.677652 11.320197 -30.598308 -10.487002 -25.615142 37.820830 13.993721 -0.740689 -8.629665 -22.007086 24.354144 2.610335 8.138546 -8.926838 0.000000 0.000000 0.000000 11.192069 -47.905472 8.265236 12.449579 2.716798 -0.296502 1.604553 -5.652870 -0.729478 0.110802 0.237305 0.005223 0.000000 0.000000 0.000000 3.378729 -2.568128 -1.100659 3.204248 6.494606 0.333890 4.607583 50.375838 -17.515793 0.000000 0.000000 0.000000 2.622373 -4.781686 -1.787372 5.484083 -6.246366 -12.620102 -1.740925 -4.152455 1.307341 -48.554353 16.413389 -18.987245 12.975303 -29.291362 6.274292 0.000000 0.000000 0.000000 4.301881 -3.679898 -0.938905 -3.964768 3.089784 11.610779 2.510985 1.561787 1.314086 -11.557458 -7.238932 45.453724 -12.770162 19.871199 10.721013 0.000000 0.000000 0.000000 
-1.890121 79.080017 2.479397 0.000000 0.000000 0.000000 15.716436 -52.231191 11.819115 -34.975401 12.312062 23.409430 45.542486 -13.451014 -0.152993 -16.616192 3.837366 -12.773978 0.737360 -5.389736 3.432102 0.000000 0.000000 0.000000 16.166559 -50.591573 11.744959 -33.151047 -9.795753 -24.258498 41.538417 14.620431 -1.481219 -11.501993 -21.930954 24.276972 1.702434 8.197339 -8.911869 0.000000 0.000000 0.000000 12.928469 -46.730030 8.957283 12.010766 2.505002 0.006486 1.445376 -6.042276 -0.674722 0.165386 0.206773 0.009457 0.000000 0.000000 0.000000 3.254931 -3.035952 -1.037990 2.829500 7.239915 -0.854626 4.523047 53.445359 -17.919613 0.000000 0.000000 0.000000 2.470183 -5.179135 -1.674469 5.301954 -6.915186 -12.170090 -1.818858 -4.290020 0.947850 -50.854324 15.216359 -18.370977 14.908951 -27.470543 8.037030 0.000000 0.000000 0.000000 4.183804 -4.159516 -0.920257 -4.161553 2.836684 12.190618 2.728843 1.738603 1.606183 -12.542094 -6.569968 45.235882 -13.331300 20.229000 11.021252 0.000000 0.000000 0.000000 
-2.284369 76.745476 3.391064 0.000000 0.000000 0.000000 17.039210 -50.451814 12.589995 -37.428091 9.905461 23.259659 49.851256 -15.158997 0.625669 -18.716025 3.658602 -13.131365 0.466922 -5.304583 3.328103 0.000000 0.000000 0.000000 17.145366 -49.080783 12.346839 -36.081567 -9.559850 -23.232887 46.320308 15.460384 -2.587968 -15.240647 -21.673276 24.455035 1.240442 8.270225 -9.177592 0.000000 0.000000 0.000000 14.753694 -45.295274 9.852574 11.746392 2.343481 0.223903 1.334728 -6.398205 -0.720767 0.169373 0.201194 0.000414 0.000000 0.000000 0.000000 3.081210 -3.448430 -1.088588 2.468876 7.943922 -2.100358 4.293582 55.981962 -17.682040 0.000000 0.000000 0.000000 2.356404 -5.546369 -1.701036 5.161648 -7.483042 -11.548635 -1.882754 -4.418189 0.610741 -53.540962 13.741796 -17.520830 16.837726 -25.459530 9.855222 0.000000 0.000000 0.000000 4.150381 -4.557637 -0.999119 -4.319354 2.337762 12.583813 2.891453 2.111817 2.047485 -13.137013 -6.400730 45.535188 -14.110751 21.195839 11.253940 0.000000 0.000000 0.000000 
-2.560030 73.930954 3.839111 0.000000 0.000000 0.000000 18.239069 -48.204029 13.329865 -40.842848 6.803203 23.308446 54.331802 -16.954370 1.575315 -20.087947 3.683580 -14.307705 0.104355 -5.211934 2.984433 0.000000 0.000000 0.000000 18.225607 -47.382422 13.103510 -39.182671 -9.644413 -22.713207 51.928586 16.283550 -3.952454 -19.563484 -21.423144 24.370219 1.436298 8.319094 -9.618583 0.000000 0.000000 0.000000 16.615798 -43.671611 10.937202 11.593493 2.244007 0.368500 1.297723 -6.717205 -0.862711 0.141369 0.198675 0.012820 0.000000 0.000000 0.000000 2.933061 -3.816092 -1.218932 2.062105 8.599183 -3.296745 3.521755 58.010033 -16.855512 0.000000 0.000000 0.000000 2.290254 -5.888382 -1.840951 5.071675 -7.979637 -10.790004 -1.888495 -4.596630 0.309410 -56.467780 11.916755 -16.349180 18.505738 -23.198258 11.473768 0.000000 0.000000 0.000000 4.212777 -4.872621 -1.148073 -4.426179 1.763977 12.738953 2.934834 2.599971 2.716294 -13.770254 -6.624922 46.139509 -15.060693 22.417338 11.373836 0.000000 0.000000 0.000000 
-2.772209 70.862648 3.843098 0.000000 0.000000 0.000000 19.454667 -45.684513 14.116215 -44.828270 3.448973 23.449250 58.626826 -18.489631 2.397325 -21.097879 4.038239 -15.671029 0.170325 -5.122941 2.324959 0.000000 0.000000 0.000000 19.387345 -45.552768 14.011680 -42.577924 -9.838731 -22.934595 58.020586 16.948390 -5.405320 -23.875164 -21.269498 23.987136 1.941122 8.367452 -10.191626 0.000000 0.000000 0.000000 18.630039 -41.934705 12.197342 11.456379 2.233767 0.447719 1.340741 -7.013580 -1.070665 0.095224 0.177925 0.018585 0.000000 0.000000 0.000000 2.862192 -4.155263 -1.375215 1.586373 9.230857 -4.394182 1.864347 59.625721 -15.508023 0.000000 0.000000 0.000000 2.279649 -6.203832 -2.047580 5.043827 -8.390752 -9.995034 -1.908380 -4.757371 -0.005131 -59.527421 9.699761 -14.987528 19.677579 -20.617505 12.668898 0.000000 0.000000 0.000000 4.364085 -5.141915 -1.339191 -4.460683 1.253436 12.715188 2.840383 3.067701 3.499321 -14.544920 -6.985622 46.895485 -16.142387 23.853490 11.404381 0.000000 0.000000 0.000000 
-2.869988 67.641006 3.528236 0.000000 0.000000 0.000000 20.730157 -43.205010 14.939582 -49.084847 0.297285 23.731890 62.575516 -19.658193 2.855455 -22.132226 4.695028 -16.796198 0.432800 -5.103902 1.683521 0.000000 0.000000 0.000000 20.674861 -43.866477 15.104550 -46.432992 -9.846984 -23.919801 64.193772 17.533442 -6.829841 -27.508759 -21.180135 23.815304 1.987395 8.465390 -10.908720 0.000000 0.000000 0.000000 20.769034 -40.189619 13.530777 11.250681 2.316847 0.460531 1.471260 -7.280500 -1.295637 0.061623 0.161580 0.029398 0.000000 0.000000 0.000000 2.910390 -4.483392 -1.497945 1.046396 9.836751 -5.348833 -0.798160 60.910029 -13.693366 0.000000 0.000000 0.000000 2.336994 -6.481525 -2.245703 5.075898 -8.688446 -9.285386 -1.875751 -4.898662 -0.339527 -62.455803 7.177554 -13.655004 20.345460 -17.969934 13.402324 0.000000 0.000000 0.000000 4.583425 -5.395864 -1.525453 -4.415057 0.896507 12.563801 2.668432 3.481627 4.365311 -15.300993 -7.107630 47.736739 -17.271467 25.592893 11.383470 0.000000 0.000000 0.000000 
